<?xml version="1.0" encoding="utf-8"?>
<!-- Generator: Adobe Illustrator 22.1.0, SVG Export Plug-In . SVG Version: 6.00 Build 0)  -->
<svg version="1.1" id="Layer_1" xmlns="http://www.w3.org/2000/svg" xmlns:xlink="http://www.w3.org/1999/xlink" x="0px" y="0px"
	 viewBox="0 0 800 400" style="enable-background:new 0 0 800 400;" xml:space="preserve">
<style type="text/css">
	.st0{fill:#F2F2F2;}
	.st1{fill:#8DD7F7;}
	.st2{fill:#0F87C9;}
	.st3{fill:#FFFFFF;}
	.st4{fill:#E6E6E6;}
	.st5{filter:url(#Adobe_OpacityMaskFilter);}
	.st6{mask:url(#mask-2_1_);fill:#8DD7F7;}
</style>
<g>
	<g>
		<path class="st0" d="M271.6,77.7v251H68v-251H271.6 M278.1,71.1h-6.5H68h-6.5v6.5v251v6.5H68h203.6h6.5v-6.5v-251V71.1L278.1,71.1
			z"/>
	</g>
	<g>
		<path class="st1" d="M169.8,108.6c39.2,0,70.9,31.7,70.9,70.9s-31.7,70.9-70.9,70.9s-70.9-31.7-70.9-70.9S130.6,108.6,169.8,108.6
			"/>
		<path class="st2" d="M150.5,163.3c5,4.9,6.1,9.4,4.1,13.5c-2.2,4.4-7.3,6.8-15.7,6.9c-7.2,0.1-9.2-3.5-10.6-5.6
			c-2.8-3.9-1.4-8.7,1.3-11.8c3.2-3.7,5.6-4.1,8.2-2.7c1.4,0.8,3.5,2.5,3.5,5.7c0,1.9-1.3,4.8-1.3,5.2s0.3,0.6,0.6,0.5
			c0.3-0.1,2.9-1.5,4.4-3.4c1.3-1.7,2.7-7.9,2.5-8.7c-0.3-0.8-2.3-2.4-2.4-3.3c-0.1-0.5-0.1-1.2-0.4-1.7c-0.2-0.4-0.6-0.7-0.9-0.9
			c-0.6-0.5-2.2,0.1-2.8-0.7c-0.6-0.7-0.8-2.2-1.5-2.3c-0.3-0.1-1-0.2-1.6-0.1c-0.9,0.2-1.5,0.7-2.2,0.6c-0.9-0.1-1.7-1.6-3-1.5
			c-1.2,0.1-2.8,2.2-4.6,4.1c-1.7,1.9-4.8,4.2-6.9,8c-1.6,2.7-2.8,6-2.2,10.6c0.7,4.6,1.8,7.7,5.5,11.1c3.8,3.5,6.9,4.5,9.2,5.3
			c2.3,0.8,3.9,1.5,6.3,1.6c0.9,0,2.7,0.1,3.3,0c1.5-0.2,1.2-0.8,2.6-1.1c5.5-0.9,9.4-3.8,11.8-6.2c0.6-0.6,2.2-2.3,2.5-2.6
			c0.1,0.4,0.1,1.8,0,2.1c-0.3,2.4-1.8,3.8-4.3,5.1c-3.5,1.8-8.5,4.5-11.9,7c-3.2,2.2-6,4.4-7,7.9s-0.8,5.6,0.3,8
			c1,2.2,2.8,4.6,5.8,6.4c2.5,1.4,4.7,2.7,7.1,4c1.7,0.9,4.6,2.3,4.3,5.3c-0.3,3.1-2.3,4.7-3.6,5.3c-2.3,1-5.5,1.3-5.6,1.4
			c-0.2,0.2,2.8,2.7,5.1,2.7c2.5,0,3.4-0.2,5.7-1c2-0.7,2.9-2.5,3.2-2.5c0.3-0.1,0.8,0,1.2-0.3c0.4-0.3,1.8-1.4,2-2
			c0.2-0.6,0.2-1.7,0.4-2.2s0.8-2.5,0.9-3.5c0-1,0.3-3.4-0.6-4.7c-0.8-1.1-0.4-1.7-1-2.3c-0.1-0.1-0.6-0.8-1.1-1
			c-0.6-0.2-1,0-1.4-0.3c-0.7-0.4-1.6-3.1-2.6-3.2c-0.4,0-0.8,0-1.2,0.1c-0.9,0.2-4.6,0.3-5.3,0c-1-0.4-4.4-2.6-4.1-5.7
			c0.2-2.7,2.2-4.5,4.8-5.5c2.3-0.8,3.1-0.8,4.7-1.5c1.6-0.7,2.6-1.7,3.8-2.3c1.2-0.6,2.8-1.4,4-2.4c0.7-0.6,1.4-1.2,2-2.1
			c0.6-0.7,1.6-2.6,2.8-3.6c1.6,2.4,3.1,4.5,4.2,5.8c2.9,3.3,6.8,5.4,8.7,6.5c1.8,1.2,6.1,4.3,7.9,6.9c1.9,2.7,1.1,6.4,0,7.8
			c-0.9,1.2-3,2.8-5.9,2.7c-3.1-0.1-6.1-1.3-7.9-3.7c-1.8-2.3-2.5-6.7-1-7.9c1.7-1.2,3.3-0.7,4.3-0.5c0.8,0.1,1.6-0.3,1.7-1
			c0.1-0.7-0.1-1.4-1-2.1c-0.5-0.4-1.3-1-2.5-1c-0.7,0-1.9,0.3-3.6,0.3c-1.8-0.1-3.5,0.1-5.1,1.6c-1.3,1.2-2.1,2.2-2.6,3.7
			c-0.2,0.6,0,1.8,0,2.6c-0.1,0.8-0.4,1.3-0.4,1.9c0,0.9,0.1,1.9,0.3,3c0.2,1.1,0.6,2.5,1.2,3.6c0.2,0.5,0.4,1.1,0.7,1.4
			c0.3,0.4,1,0.7,1.6,1.3c1.1,1.1,2.4,2.5,3.5,2.9c1.3,0.5,3.9-0.4,4.6-0.1c0.7,0.2,1.7,1.4,2.8,1.3c1.1,0,8-0.4,10.3-1.3
			c3-1.2,8.1-4.4,9.1-8.9c1.2-5.6-1.1-9.4-3.5-12.2c-2.9-3.4-8.3-7.9-12.5-10.8c-2.4-1.7-3.2-3-4.2-4.5c-0.7-1.2-1.4-3.1-1.1-4.9
			c1.7,0.9,4.1,3.6,4.8,4.5c0.9,1.1,2.1,1.8,3,2.3c0.8,0.4,1.8,0.2,2.5,0.3c0.8,0.1,0.2,0.8,1.6,1.2c1.3,0.5,7.3,1.6,8.7,1.5
			c0.6,0,1.4-0.5,2.3-0.8c0.9-0.3,2.4-0.4,6.6-2.1c5.8-2.3,8.2-5.9,10.2-10.4c2-4.4,0.6-10-0.5-12.6c-1.1-2.6-3.4-5.9-5.7-9.5
			c-2.3-3.5-5.2-7.1-3.9-14.3c1.3-7.2,6.8-9.4,7.6-10.8c0.6-1.1-1.2-2.1-1.7-2.4c-0.6-0.3-1.2-0.5-2.7-0.5c-0.1,0-0.2,0-0.3,0
			c-1.3,0-2,0.9-2.5,1c-0.6,0.2-3.1,0-3.5,0.1c-0.4,0.1-1.1,0.9-1.2,1.1c-0.3,0.4-0.1,0.5-0.4,1.2c-0.4,0.8-2.9,2.9-3.6,4.3
			c-0.4,0.7,0,2.2-0.4,3.2c-0.5,1-1.8,0.9-2.1,2c-0.2,0.8,0.2,3.4-0.2,4.6c-0.4,1.3-1.1,0.7-1.2,2c-0.1,1.9,3.2,4.8,3.8,5.7
			c0.6,0.9,0.8,1.4,1.5,2.9c0.8,1.7,1.8,2.8,2.6,3.7c0.8,0.9,2.9,2.2,3.5,3.2c0.3,0.5,0,1.5,0.2,2.2c0.2,0.6,0.8,1.2,1.6,2.5
			c0.9,1.3,0.6,4.6-0.2,6.6c-0.8,2-3,4.7-6.7,5.7s-13.1,0.2-16.9-9.7c-1.7-4.5-0.9-9.9,3.1-14c4-4.2,7.1-10.6,7.1-17.2
			c0-14.1-12-25.6-26.3-25.6s-26,11.5-26,25.6C142.8,152,145.5,158.5,150.5,163.3z"/>
		<path class="st3" d="M164.8,134.6c7,0,12.7,5.7,12.7,12.7c0,7-5.7,12.7-12.7,12.7s-12.7-5.7-12.7-12.7
			C152.1,140.3,157.8,134.6,164.8,134.6"/>
		<path class="st2" d="M163.2,146.2c1.6,0,2.9,1.3,2.9,2.9s-1.3,2.9-2.9,2.9s-2.9-1.3-2.9-2.9S161.6,146.2,163.2,146.2"/>
		<path d="M216.6,297.8v-2.7l3.3-0.2l0.7-0.9v-23.6l-0.7-0.7l-3.3-0.2v-2.7H233v2.7l-3.4,0.2l-0.7,0.7V294l0.7,0.9l3.4,0.2v2.7
			H216.6z M180.6,297.8v-2.6l2.8-0.3l0.9-0.9v-23.6l-0.6-0.7l-3.1-0.3v-2.5h13v1.2l13.2,20.5v-18l-0.8-0.9l-3-0.3v-2.5h11.7v2.5
			l-2.7,0.3l-0.9,0.9v27.2h-7.3l-15.2-23.5V294l0.7,0.9l3.1,0.3v2.6H180.6z M160.9,269.7c-2.4,0-4.3,1.2-5.7,3.5
			c-1.4,2.3-2.1,5.5-2.1,9.5c0,3.8,0.7,6.8,2.2,9.1c1.5,2.3,3.4,3.5,5.7,3.5c2.3,0,4.2-1.2,5.6-3.6c1.4-2.4,2.1-5.6,2.1-9.6
			c0-3.8-0.7-6.8-2.1-9.1C165.1,270.8,163.3,269.7,160.9,269.7 M143.9,282c0-4.8,1.6-8.6,4.7-11.5c3.1-2.9,7.2-4.3,12.4-4.3
			c2.1,0,4.1,0.3,5.9,0.9c1.8,0.6,3.4,1.4,4.8,2.4c2,1.5,3.5,3.4,4.6,5.6c1.1,2.2,1.6,4.5,1.6,7.1c0,4.8-1.6,8.7-4.8,11.8
			c-3.2,3.1-7.4,4.6-12.4,4.6c-5,0-9.1-1.5-12.1-4.5C145.4,291,143.9,287,143.9,282 M123.5,269.7c-2.4,0-4.3,1.2-5.7,3.5
			c-1.4,2.3-2.1,5.5-2.1,9.5c0,3.8,0.7,6.8,2.2,9.1c1.5,2.3,3.4,3.5,5.7,3.5s4.2-1.2,5.6-3.6c1.4-2.4,2.1-5.6,2.1-9.6
			c0-3.8-0.7-6.8-2.1-9.1C127.7,270.8,125.9,269.7,123.5,269.7 M106.5,282c0-4.8,1.6-8.6,4.7-11.5c3.1-2.9,7.2-4.3,12.4-4.3
			c2.1,0,4.1,0.3,5.9,0.9c1.8,0.6,3.4,1.4,4.8,2.4c2,1.5,3.5,3.4,4.6,5.6c1.1,2.2,1.6,4.5,1.6,7.1c0,4.8-1.6,8.7-4.8,11.8
			c-3.2,3.1-7.4,4.6-12.4,4.6c-5,0-9.1-1.5-12.1-4.5C108.1,291,106.5,287,106.5,282"/>
	</g>
	<path class="st4" d="M216.6,328.7V326l3.3-0.2l0.7-0.9v-23.6l-0.7-0.7l-3.3-0.2v-2.7H233v2.7l-3.4,0.2l-0.7,0.7v23.6l0.7,0.9
		l3.4,0.2v2.7H216.6z"/>
	<path class="st4" d="M169.1,108.6v-2.7l3.3-0.2l0.7-0.9V81.2l-0.7-0.7l-3.3-0.2v-2.7h16.4v2.7l-3.4,0.2l-0.7,0.7v23.6l0.7,0.9
		l3.4,0.2v2.7H169.1z"/>
	<path class="st4" d="M68,171.2h2.7l0.2,3.3l0.9,0.7h23.6l0.7-0.7l0.2-3.3h2.7v16.4h-2.7l-0.2-3.4l-0.7-0.7H71.7l-0.9,0.7l-0.2,3.4
		H68V171.2z"/>
	<path class="st4" d="M240.7,171.2h2.7l0.2,3.3l0.9,0.7h23.6l0.7-0.7l0.2-3.3h2.7v16.4h-2.7l-0.2-3.4l-0.7-0.7h-23.6l-0.9,0.7
		l-0.2,3.4h-2.7V171.2z"/>
</g>
<g>
	<g>
		<path class="st0" d="M732.5,120.8v164.7H369.2V120.8H732.5 M739,114.3h-6.5H369.2h-6.5v6.5v164.7v6.5h6.5h363.2h6.5v-6.5V120.8
			V114.3L739,114.3z"/>
	</g>
	<g id="Page-1_18_">
		<g id="Wordmark-Horizontal_18_">
			<g id="Logo-wordmark-HORIZ_18_" transform="translate(1.000000, 1.000000)">
				<g id="OONI-Logo_15_" transform="translate(36.000000, 35.000000)">
					<g id="Group-3_18_" transform="translate(0.000000, 0.030979)">
						<defs>
							<filter id="Adobe_OpacityMaskFilter" filterUnits="userSpaceOnUse" x="375.6" y="128.2" width="78.3" height="77.9">
								<feColorMatrix  type="matrix" values="1 0 0 0 0  0 1 0 0 0  0 0 1 0 0  0 0 0 1 0"/>
							</filter>
						</defs>
						<mask maskUnits="userSpaceOnUse" x="375.6" y="128.2" width="78.3" height="77.9" id="mask-2_1_">
							<g class="st5">
								<polygon id="path-1_1_" class="st3" points="453.9,167.1 453.9,128.2 375.6,128.2 375.6,167.1 375.6,206.1 453.9,206.1 
																	"/>
							</g>
						</mask>
						<path id="Fill-1_18_" class="st6" d="M414.7,128.2c21.6,0,39.1,17.4,39.1,39s-17.5,39-39.1,39c-21.6,0-39.1-17.4-39.1-39
							S393.1,128.2,414.7,128.2"/>
					</g>
					<path id="Fill-4_16_" class="st2" d="M404.1,158.3c2.7,2.7,3.4,5.2,2.2,7.4c-1.2,2.4-4,3.7-8.7,3.8c-4,0-5.1-1.9-5.9-3.1
						c-1.5-2.2-0.7-4.8,0.7-6.5c1.8-2.1,3.1-2.2,4.5-1.5c0.8,0.4,1.9,1.4,1.9,3.1c0,1-0.7,2.7-0.7,2.9c0,0.2,0.2,0.3,0.3,0.3
						c0.2-0.1,1.6-0.8,2.4-1.9c0.7-0.9,1.5-4.3,1.4-4.8c-0.2-0.4-1.3-1.3-1.3-1.8c0-0.3-0.1-0.7-0.2-1c-0.1-0.2-0.3-0.4-0.5-0.5
						c-0.3-0.3-1.2,0.1-1.6-0.4c-0.3-0.4-0.4-1.2-0.8-1.3c-0.2,0-0.5-0.1-0.9-0.1c-0.5,0.1-0.8,0.4-1.2,0.3c-0.5-0.1-1-0.9-1.6-0.8
						c-0.7,0.1-1.6,1.2-2.5,2.3c-1,1-2.6,2.3-3.8,4.4c-0.9,1.5-1.6,3.3-1.2,5.8c0.4,2.5,1,4.2,3,6.1c2.1,1.9,3.8,2.5,5.1,2.9
						c1.3,0.4,2.1,0.8,3.5,0.9c0.5,0,1.5,0,1.8,0c0.8-0.1,0.7-0.5,1.4-0.6c3-0.5,5.2-2.1,6.5-3.4c0.3-0.3,1.2-1.3,1.4-1.4
						c0,0.2,0.1,1,0,1.2c-0.2,1.3-1,2.1-2.4,2.8c-1.9,1-4.7,2.5-6.6,3.8c-1.8,1.2-3.3,2.4-3.8,4.4c-0.5,2-0.4,3.1,0.2,4.4
						c0.5,1.2,1.5,2.5,3.2,3.5c1.4,0.8,2.6,1.5,3.9,2.2c0.9,0.5,2.5,1.3,2.4,2.9c-0.1,1.7-1.2,2.6-2,2.9c-1.3,0.6-3,0.7-3.1,0.8
						c-0.1,0.1,1.5,1.5,2.8,1.5c1.4,0,1.9-0.1,3.2-0.6c1.1-0.4,1.6-1.4,1.8-1.4c0.2,0,0.4,0,0.7-0.2c0.2-0.2,1-0.8,1.1-1.1
						c0.1-0.3,0.1-0.9,0.2-1.2s0.5-1.3,0.5-1.9c0-0.6,0.2-1.8-0.3-2.6c-0.4-0.6-0.2-0.9-0.5-1.3c-0.1-0.1-0.4-0.4-0.6-0.5
						c-0.3-0.1-0.5,0-0.8-0.2c-0.4-0.2-0.9-1.7-1.4-1.7c-0.2,0-0.5,0-0.7,0c-0.5,0.1-2.5,0.2-2.9,0c-0.6-0.2-2.4-1.4-2.3-3.1
						c0.1-1.5,1.2-2.5,2.6-3c1.3-0.5,1.7-0.4,2.6-0.8c0.9-0.4,1.5-0.9,2.1-1.3c0.7-0.3,1.5-0.8,2.2-1.3c0.4-0.3,0.8-0.7,1.1-1.1
						c0.3-0.4,0.9-1.4,1.5-2c0.9,1.3,1.7,2.5,2.3,3.2c1.6,1.8,3.8,3,4.8,3.6c1,0.6,3.3,2.4,4.3,3.8c1.1,1.5,0.6,3.5,0,4.3
						c-0.5,0.7-1.7,1.5-3.3,1.5c-1.7,0-3.3-0.7-4.3-2c-1-1.3-1.4-3.7-0.5-4.3c0.9-0.7,1.8-0.4,2.4-0.3c0.4,0.1,0.9-0.2,0.9-0.5
						c0.1-0.4,0-0.8-0.5-1.2c-0.3-0.2-0.7-0.5-1.4-0.5c-0.4,0-1,0.2-2,0.1c-1,0-1.9,0.1-2.8,0.9c-0.7,0.7-1.2,1.2-1.4,2
						c-0.1,0.3,0,1,0,1.4c0,0.4-0.2,0.7-0.2,1.1c0,0.5,0.1,1.1,0.2,1.6c0.1,0.6,0.4,1.4,0.6,2c0.1,0.3,0.2,0.6,0.4,0.8
						c0.2,0.2,0.5,0.4,0.9,0.7c0.6,0.6,1.3,1.4,1.9,1.6c0.7,0.3,2.1-0.2,2.5-0.1c0.4,0.1,0.9,0.7,1.5,0.7c0.6,0,4.4-0.2,5.7-0.7
						c1.6-0.6,4.4-2.4,5-4.9c0.7-3.1-0.6-5.2-1.9-6.7c-1.6-1.9-4.6-4.3-6.9-6c-1.3-0.9-1.8-1.6-2.3-2.5c-0.4-0.6-0.8-1.7-0.6-2.7
						c0.9,0.5,2.3,2,2.7,2.5c0.5,0.6,1.1,1,1.6,1.2c0.4,0.2,1,0.1,1.4,0.2c0.4,0.1,0.1,0.4,0.9,0.7c0.7,0.3,4,0.9,4.8,0.8
						c0.3,0,0.8-0.3,1.3-0.4c0.5-0.2,1.3-0.2,3.7-1.1c3.2-1.2,4.5-3.3,5.6-5.7c1.1-2.4,0.3-5.5-0.3-6.9c-0.6-1.4-1.9-3.3-3.1-5.2
						s-2.9-3.9-2.2-7.9c0.7-4,3.7-5.2,4.2-5.9c0.3-0.6-0.7-1.2-0.9-1.3c-0.3-0.1-0.6-0.3-1.5-0.3c-0.1,0-0.1,0-0.1,0
						c-0.7,0-1.1,0.5-1.4,0.6c-0.3,0.1-1.7,0-1.9,0.1c-0.2,0-0.6,0.5-0.7,0.6c-0.1,0.2,0,0.3-0.2,0.7c-0.2,0.4-1.6,1.6-2,2.3
						c-0.2,0.4,0,1.2-0.2,1.8c-0.3,0.5-1,0.5-1.2,1.1c-0.1,0.4,0.1,1.8-0.1,2.5c-0.2,0.7-0.6,0.4-0.6,1.1c0,1,1.8,2.7,2.1,3.1
						c0.3,0.5,0.4,0.7,0.8,1.6c0.4,1,1,1.6,1.4,2c0.4,0.5,1.6,1.2,1.9,1.8c0.2,0.3,0,0.8,0.1,1.2c0.1,0.3,0.4,0.6,0.9,1.4
						c0.5,0.7,0.3,2.5-0.1,3.6c-0.4,1.1-1.7,2.6-3.7,3.2s-7.3,0.1-9.3-5.3c-1-2.5-0.5-5.4,1.7-7.7c2.2-2.3,3.9-5.8,3.9-9.5
						c0-7.8-6.6-14.1-14.5-14.1c-7.9,0-14.3,6.3-14.3,14.1C399.8,152,401.3,155.6,404.1,158.3z"/>
					<path id="Fill-6_15_" class="st3" d="M412,142.5c3.9,0,7,3.1,7,7c0,3.9-3.1,7-7,7s-7-3.1-7-7C405,145.6,408.1,142.5,412,142.5"
						/>
					<path id="Fill-8_16_" class="st2" d="M411.1,148.9c0.9,0,1.6,0.7,1.6,1.6s-0.7,1.6-1.6,1.6c-0.9,0-1.6-0.7-1.6-1.6
						S410.2,148.9,411.1,148.9"/>
				</g>
				<g id="Wordmark_19_" transform="translate(206.000000, 68.000000)">
					<path id="Fill-10_19_" d="M304.1,136.1c0-6.7,2.2-12,6.5-16.1c4.4-4.1,10.2-6.1,17.4-6.1c3,0,5.7,0.4,8.3,1.2
						c2.6,0.8,4.8,1.9,6.8,3.4c2.8,2.2,5,4.8,6.5,7.8c1.5,3.1,2.2,6.4,2.2,9.9c0,6.7-2.3,12.3-6.8,16.6c-4.5,4.3-10.3,6.4-17.5,6.4
						c-7.1,0-12.7-2.1-17-6.4C306.3,148.7,304.1,143,304.1,136.1L304.1,136.1z M328,118.8c-3.4,0-6.1,1.6-8.1,4.9
						c-2,3.3-3,7.7-3,13.3c0,5.3,1,9.6,3.1,12.8c2.1,3.3,4.8,4.9,8,4.9c3.2,0,5.9-1.7,7.8-5c2-3.3,3-7.8,3-13.4c0-5.3-1-9.6-3-12.8
						C333.9,120.4,331.3,118.8,328,118.8L328,118.8z M356.7,136.1c0-6.7,2.2-12,6.5-16.1c4.4-4.1,10.2-6.1,17.4-6.1
						c3,0,5.7,0.4,8.3,1.2c2.6,0.8,4.8,1.9,6.8,3.4c2.8,2.2,5,4.8,6.5,7.8c1.5,3.1,2.2,6.4,2.2,9.9c0,6.7-2.3,12.3-6.8,16.6
						c-4.5,4.3-10.3,6.4-17.5,6.4c-7.1,0-12.7-2.1-17-6.4C358.9,148.7,356.7,143,356.7,136.1L356.7,136.1z M380.6,118.8
						c-3.4,0-6.1,1.6-8.1,4.9c-2,3.3-3,7.7-3,13.3c0,5.3,1,9.6,3.1,12.8c2.1,3.3,4.8,4.9,8,4.9c3.2,0,5.9-1.7,7.8-5
						c2-3.3,3-7.8,3-13.4c0-5.3-1-9.6-3-12.8C386.5,120.4,383.9,118.8,380.6,118.8L380.6,118.8z M408.3,158.2v-3.6l4-0.4l1.2-1.2
						v-33.2l-0.9-0.9l-4.3-0.5v-3.5h18.3v1.7l18.6,28.8V120l-1.1-1.2l-4.2-0.5v-3.5h16.4v3.5l-3.8,0.5l-1.2,1.2v38.1h-10.3
						l-21.5-32.9v27.7l0.9,1.2l4.3,0.4v3.6H408.3z M459,158.2v-3.8l4.7-0.3l1-1.2v-33.2l-1-0.9l-4.7-0.3v-3.8h23.1v3.8l-4.8,0.3
						l-1,0.9v33.2l1,1.2l4.8,0.3v3.8H459z"/>
				</g>
			</g>
		</g>
	</g>
	<polygon class="st4" points="439.6,285.5 439.6,281.7 444.3,281.5 445.3,280.3 445.3,247.1 444.3,246.1 439.6,245.9 439.6,242.1 
		462.8,242.1 462.8,245.9 458,246.1 457,247.1 457,280.3 458,281.5 462.8,281.7 462.8,285.5 	"/>
	<g>
		<polygon class="st4" points="439.6,164.2 439.6,160.4 444.3,160.2 445.3,158.9 445.3,125.8 444.3,124.8 439.6,124.6 439.6,120.8 
			462.8,120.8 462.8,124.6 458,124.8 457,125.8 457,158.9 458,160.2 462.8,160.4 462.8,164.2 		"/>
	</g>
	<g>
		<polygon class="st4" points="369.2,182.9 373,182.9 373.2,187.6 374.5,188.6 407.6,188.6 408.6,187.6 408.8,182.9 412.6,182.9 
			412.6,206 408.8,206 408.6,201.2 407.6,200.2 374.5,200.2 373.2,201.2 373,206 369.2,206 		"/>
	</g>
	<g>
		<polygon class="st4" points="689.1,182.9 692.9,182.9 693.1,187.6 694.3,188.6 727.5,188.6 728.5,187.6 728.7,182.9 732.5,182.9 
			732.5,206 728.7,206 728.5,201.2 727.5,200.2 694.3,200.2 693.1,201.2 692.9,206 689.1,206 		"/>
	</g>
</g>
</svg>
